<?xml version="1.0" encoding="UTF-8"?>
<svg width="37px" height="43px" viewBox="0 0 37 43" version="1.1" xmlns="http://www.w3.org/2000/svg" xmlns:xlink="http://www.w3.org/1999/xlink">
    <!-- Generator: Sketch 54.1 (76490) - https://sketchapp.com -->
    <title>Branding-Symbol</title>
    <desc>Created with Sketch.</desc>
    <g id="Page-1" stroke="none" stroke-width="1" fill="none" fill-rule="evenodd">
        <g id="Desktop" transform="translate(-493.000000, -949.000000)" stroke="#FFA112" stroke-width="2">
            <g id="Symbols" transform="translate(0.000000, 583.000000)">
                <g id="Branding" transform="translate(366.000000, 367.000000)">
                    <g id="Branding-Symbol" transform="translate(129.000000, 0.000000)">
                        <path d="M3.01912265,37.6357886 C3.01912265,37.6357886 3.06214862,40.9995273 6.44398975,40.9995273 L24.5493173,40.9995273 C24.5493173,40.9995273 28,41.1178498 28,37.6104338 L28,19 L3.01912265,19 C3.01912265,19 2.97609668,37.6357886 3.01912265,37.6357886 Z" id="Path"></path>
                        <path d="M28.1424802,22 L30.0580475,22 C33.3746702,23.0508757 34,26.1868224 34,26.1868224 L34,27.8131776 C33.2242744,31.3077565 30.0580475,32 30.0580475,32 L28,32" id="Path"></path>
                        <polyline id="Path" points="6.67673179 19 3 14.4891775 6.57015986 11 13 18.3506494"></polyline>
                        <polyline id="Path" points="2.30911901 14 0 8 6 10.6121372"></polyline>
                        <polyline id="Path" points="21 18.637931 21 0 12 0 12 19"></polyline>
                        <path d="M16,4.5 L21,4.5" id="Path"></path>
                        <path d="M16,10.5 L21,10.5" id="Path"></path>
                        <path d="M17,7.5 L20,7.5" id="Path"></path>
                        <path d="M17,14.5 L20,14.5" id="Path"></path>
                        <path d="M25.9051123,10.4660055 C25.9051123,10.4660055 28.0794926,11.6674931 30.4097718,10.4660055 C30.4097718,10.4660055 31.2877291,8.46638696 30.9020843,4.47573186 C30.9020843,4.47573186 29.4169416,1.2059693 25.9379332,1 L25.9379332,5.42833985 C25.9461384,5.4369219 23.845605,7.66825594 25.9051123,10.4660055 Z" id="Path"></path>
                        <path d="M25,19 L29,12" id="Path"></path>
                        <path d="M21,17 L26,11" id="Path"></path>
                    </g>
                </g>
            </g>
        </g>
    </g>
</svg>