<?xml version="1.0" encoding="UTF-8"?>
<svg width="46px" height="44px" viewBox="0 0 46 44" version="1.1" xmlns="http://www.w3.org/2000/svg" xmlns:xlink="http://www.w3.org/1999/xlink">
    <!-- Generator: Sketch 54.1 (76490) - https://sketchapp.com -->
    <title>Custom-Code-Symbol</title>
    <desc>Created with Sketch.</desc>
    <g id="Page-1" stroke="none" stroke-width="1" fill="none" fill-rule="evenodd">
        <g id="Desktop" transform="translate(-824.000000, -949.000000)" stroke="#E9C92C" stroke-width="2">
            <g id="Symbols" transform="translate(0.000000, 583.000000)">
                <g id="Custom-Code" transform="translate(727.000000, 367.000000)">
                    <g id="Custom-Code-Symbol" transform="translate(98.000000, 0.000000)">
                        <path d="M0,0 L42,42 L0.0612117427,42 C0.0612117427,42 0,-0.122156371 0,0 Z" id="Path"></path>
                        <path d="M5.02673367,18 L24,37 L5.02673367,37 C5.02673367,37 4.96658291,18 5.02673367,18 Z" id="Path"></path>
                        <path d="M5,9 L7,7" id="Path" stroke-linecap="round"></path>
                        <path d="M9,14 L11,12" id="Path" stroke-linecap="round"></path>
                        <path d="M14,19 L16,17" id="Path" stroke-linecap="round"></path>
                        <path d="M19,24 L21,22" id="Path" stroke-linecap="round"></path>
                        <path d="M24,28 L26,26" id="Path" stroke-linecap="round"></path>
                        <path d="M28,33 L30,31" id="Path" stroke-linecap="round"></path>
                        <path d="M32,37 L34,35" id="Path" stroke-linecap="round"></path>
                    </g>
                </g>
            </g>
        </g>
    </g>
</svg>