<?xml version="1.0" encoding="UTF-8"?>
<svg width="45px" height="41px" viewBox="0 0 45 41" version="1.1" xmlns="http://www.w3.org/2000/svg" xmlns:xlink="http://www.w3.org/1999/xlink">
    <!-- Generator: Sketch 54.1 (76490) - https://sketchapp.com -->
    <title>Google-Friendly-Symbol</title>
    <desc>Created with Sketch.</desc>
    <g id="Page-1" stroke="none" stroke-width="1" fill="none" fill-rule="evenodd">
        <g id="Desktop" transform="translate(-823.000000, -761.000000)" stroke="#C7417E" stroke-width="2">
            <g id="Symbols" transform="translate(0.000000, 583.000000)">
                <g id="Google-Friendly" transform="translate(710.000000, 179.000000)">
                    <g id="Google-Friendly-Symbol" transform="translate(114.000000, 0.000000)">
                        <ellipse id="Oval" cx="9.5" cy="30" rx="9.5" ry="9"></ellipse>
                        <ellipse id="Oval" cx="33.5" cy="30" rx="9.5" ry="9"></ellipse>
                        <path d="M3,30 C3,30 4.25373134,24.6017192 9,24" id="Path" stroke-linecap="round"></path>
                        <path d="M27,30 C27,30 28.2537313,24.6017192 33,24" id="Path" stroke-linecap="round"></path>
                        <path d="M40,23 C40,23 37.5344828,13.9806347 31.637931,6.03194439 C31.637931,6.03194439 30.4913793,2.44304216 28.1465517,0.293126991 C28.1465517,0.293126991 25.6810345,-0.366408739 24,0.293126991 L24,9.14118426" id="Path"></path>
                        <path d="M3,23 C3,23 5.46551724,13.9081217 11.362069,6.00065863 C11.362069,6.00065863 12.5086207,2.43037089 14.8534483,0.291606636 C14.8534483,0.291606636 17.3189655,-0.364508295 19,0.291606636 L19,9.09377187" id="Path"></path>
                        <path d="M12,16 C12,16 19.9542857,7 30,16" id="Path" stroke-linecap="round"></path>
                        <path d="M18.5,28 L18.5,13" id="Path" stroke-linecap="round"></path>
                        <path d="M24.5,28 L24.5,13" id="Path" stroke-linecap="round"></path>
                    </g>
                </g>
            </g>
        </g>
    </g>
</svg>