<?xml version="1.0" encoding="UTF-8"?>
<svg width="44px" height="37px" viewBox="0 0 44 37" version="1.1" xmlns="http://www.w3.org/2000/svg" xmlns:xlink="http://www.w3.org/1999/xlink">
    <!-- Generator: Sketch 54.1 (76490) - https://sketchapp.com -->
    <title>Inspiration-Symbol</title>
    <desc>Created with Sketch.</desc>
    <g id="Page-1" stroke="none" stroke-width="1" fill="none" fill-rule="evenodd">
        <g id="Desktop" transform="translate(-158.000000, -953.000000)">
            <g id="Symbols" transform="translate(0.000000, 583.000000)">
                <g id="Inspiration" transform="translate(44.000000, 371.000000)">
                    <g id="Inspiration-Symbol" transform="translate(115.000000, 0.000000)">
                        <path d="M5.1426351,27.3853383 L5.1426351,31.5574002 C5.1426351,31.5574002 5.1426351,34.9961907 8.5571707,34.9961907 L37.7229956,34.9961907 C37.7229956,34.9961907 41.999534,35.291185 41.999534,30.6892742 L41.999534,11.38822 C41.999534,11.38822 42.1166995,8 38.6352122,8 L1,8" id="Path" stroke="#C83233" stroke-width="2" stroke-linecap="square"></path>
                        <path d="M37,15.5 L41,15.5" id="Path" stroke="#C83233" stroke-width="2" stroke-linecap="square"></path>
                        <path d="M32.8634583,26.999676 C32.8634583,26.999676 36.9985222,27.1175051 36.9985222,22.858828 L36.9985222,3.33287772 C36.9985222,3.33287772 37.1750189,0 33.6703,0 L3.43054375,0 C3.43054375,0 0.00987092697,0.0589145051 0.00987092697,3.42545765 L0.00987092697,22.8335789 C0.00987092697,22.8335789 -0.401954548,26.9239288 4.09450727,26.9239288 C4.09450727,26.9239288 32.8634583,26.881847 32.8634583,26.999676 Z" id="Path" stroke="#C83233" stroke-width="2" stroke-linecap="square"></path>
                        <circle id="Oval" fill="#C83233" fill-rule="nonzero" cx="5.5" cy="4.5" r="1.5"></circle>
                        <circle id="Oval" fill="#C83233" fill-rule="nonzero" cx="9.5" cy="4.5" r="1.5"></circle>
                        <circle id="Oval" fill="#C83233" fill-rule="nonzero" cx="13.5" cy="4.5" r="1.5"></circle>
                    </g>
                </g>
            </g>
        </g>
    </g>
</svg>